<svg xmlns="http://www.w3.org/2000/svg" viewBox="0 0 100 100"><path fill="#FFF" d="M85.5 97H15C8.4 97 3 91.6 3 85V14.5c0-6.6 5.4-12 12-12h70.5c6.6 0 12 5.4 12 12V85c0 6.6-5.4 12-12 12z"/><path fill="#231F20" d="M36 50.8h-7.5s-2 0-2-2.2V18.7s-.1-1.8 2-1.8h38.7s1.6.1 1.6 2v29.7s0 2.2-1.6 2.2h-7.5v6.5h10.8s5.3-.7 5.3-4.3V14.8s-1.4-4.9-5-4.9h-45s-6 .3-6 5.2v38.3s.5 3.9 4.8 3.9h11.6l-.2-6.5z"/><path fill="#E11C4F" d="M40.2 51.2s-2.9-3.1-2.7-7.9c.2-4.8 1.7-5 2.1-8.6.4-3.6-.7-5-.7-5s4.3 5.2 5.7 9.1c0 0 1.3-1.4.7-4.2-.6-2.8-1.8-4-.7-8.3 0 0 .8 3.9 1.9 5.1 1.2 1.3 4 5.2 5.4 8.6 0 0 1.3-1.3 2-4.2.6-2.9.1-7 .1-7s4.6 6.8 4.9 11.7c.3 5-3 10.1-3 10.1s.7-1.8.3-5.1c0 0-.8 6.8-6.9 11.4 0 0 1.1-2.9.9-7.4-.3-4.5-1.3-5.3-1.3-5.3s-1.6 7.8-3.1 11.4c0 0-2.4-1.8-3.1-3.9-.7-2.1-1.5-5.8-1.5-5.8s-.9 1.3-.9 2.5c-.2.9-.1 2.8-.1 2.8z"/><path fill="#E11C4F" d="M51.7 35.1s1-3.1-.5-6.6c-1.5-3.5-3.1-2.6-4-9.2 0 0-2.6 5.4 0 9 2 3 4.5 6.8 4.5 6.8z"/><g fill="#231F20"><path d="M19.4 59h4.3l5.6 7.5V59h4.3v13.6h-4.3l-5.5-7.5v7.5h-4.3V59zM36.6 59h11.3v2.9h-6.7v2.4H47V67h-5.7v5.6h-4.6V59zM50.4 59H58c1.7 0 2.9.4 3.7 1.1.8.7 1.2 1.8 1.2 3.1 0 1.4-.4 2.4-1.3 3.2-.9.8-2.3 1.2-4.1 1.2H55v5.1h-4.6V59zm4.6 5.8h1.1c.9 0 1.5-.1 1.9-.4.4-.3.5-.6.5-1.1 0-.4-.2-.8-.5-1.1-.3-.3-.9-.4-1.7-.4H55v3zM72.6 70.3h-5.2l-.7 2.2H62L67.6 59h5l5.6 13.6h-4.8l-.8-2.3zm-.9-2.9l-1.6-4.9-1.6 4.9h3.2z"/></g><g fill="#231F20"><path d="M18.9 76.9l3.4 8 3.4-8h2.2v10.4H26v-6.8c-.5 1.2-1 2.3-1.4 3.4-.5 1.1-.9 2.3-1.4 3.4h-1.6l-2.9-6.9v6.9h-1.9V76.9h2.1zM37.6 76.9v1.3h-6.4v3h6v1.3h-6V86h6.7v1.3h-8.5V76.9h8.2zM41.5 76.9l3.4 8 3.4-8h2.2v10.4h-1.9v-6.8c-.5 1.2-1 2.3-1.4 3.4-.5 1.1-.9 2.3-1.4 3.4h-1.6l-2.9-6.9v6.9h-1.9V76.9h2.1zM52 76.9h4.8c.5 0 1 .1 1.5.2.4.1.8.3 1.1.5.3.2.5.5.7.8.2.3.2.6.2 1 0 .5-.1.9-.4 1.3-.2.4-.6.7-1.1 1 .4.1.7.3 1 .5.3.2.5.4.7.6.2.2.3.5.4.7.1.2.1.5.1.8 0 .4-.1.8-.3 1.2-.2.4-.5.7-.8 1-.3.3-.7.5-1.2.6-.4.2-.9.2-1.4.2H52V76.9zm1.9 4.3h2.6c.3 0 .6 0 .8-.1.2-.1.5-.2.6-.3.2-.1.3-.3.4-.5.1-.2.2-.4.2-.6 0-.2 0-.4-.1-.5-.1-.2-.2-.3-.3-.4-.1-.1-.3-.2-.6-.3-.2-.1-.5-.1-.8-.1h-2.8v2.8zm0 4.8h2.9c.3 0 .5 0 .8-.1.3-.1.5-.2.7-.3.2-.1.4-.3.5-.5.1-.2.2-.5.2-.8 0-.2-.1-.5-.2-.7-.1-.2-.3-.4-.5-.6-.2-.2-.5-.3-.9-.4-.3-.1-.7-.1-1.1-.1h-2.5V86zM70.6 76.9v1.3h-6.4v3h6v1.3h-6V86h6.7v1.3h-8.5V76.9h8.2zM81.1 80c0 .5-.1.9-.4 1.3-.2.4-.6.8-1.1 1.1.3.1.5.2.6.4.2.1.3.3.4.5.1.2.2.4.2.6 0 .2.1.4.1.6V86c0 .2 0 .4.1.7.1.2.2.5.3.7h-2c-.1-.1-.1-.2-.2-.3 0-.1-.1-.2-.1-.4v-.3V84.5c0-.2 0-.3-.1-.5s-.2-.3-.3-.5c-.1-.1-.3-.2-.5-.3-.2-.1-.5-.1-.8-.1h-3.1v4.3h-1.9V76.9h5c.6 0 1.1.1 1.6.3.5.2.9.4 1.2.7.3.3.6.6.7 1 .2.4.3.7.3 1.1zm-6.9 1.7h3.1c.3 0 .5 0 .7-.1.2-.1.4-.2.6-.4.2-.2.3-.3.4-.6.1-.2.2-.4.2-.7 0-.2 0-.5-.1-.7-.1-.2-.2-.4-.4-.5-.2-.1-.4-.3-.6-.4-.2-.1-.5-.1-.8-.1h-3.1v3.5z"/></g><path fill="#231F20" d="M79.7 58.9c0 1.4-1.3 2.5-2.9 2.5-1.6 0-2.9-1.1-2.9-2.5s1.3-2.5 2.9-2.5c1.6 0 2.9 1.1 2.9 2.5zm-5.1 0c0 1.1.9 2 2.2 2 1.2 0 2.1-.9 2.1-2s-.9-2-2.2-2c-1.1 0-2.1.9-2.1 2zm1.8 1.3h-.6v-2.5c.3 0 .6-.1 1.1-.1.5 0 .8.1 1 .2.2.1.3.3.3.5 0 .3-.3.5-.6.6.3.1.4.3.5.6.1.4.2.5.2.6h-.7c-.1-.1-.1-.3-.2-.6s-.2-.4-.6-.4h-.3v1.1zm0-1.4h.3c.4 0 .6-.1.6-.4 0-.2-.2-.4-.6-.4h-.4v.8z"/></svg>