<svg xmlns="http://www.w3.org/2000/svg" viewBox="0 0 100 100"><path fill="#FFF" d="M85.5 97H15C8.4 97 3 91.6 3 85V14.5c0-6.6 5.4-12 12-12h70.5c6.6 0 12 5.4 12 12V85c0 6.6-5.4 12-12 12z"/><g fill="#005745"><path d="M27.1 24.4c4.5 3 8.6 7.2 12.2 12.5.8 1.2 1.6 2.4 2.3 3.7h10.6l-1.8-1.8C43.7 32 35.8 27.2 27.1 24.4zM28.4 43.4c1.2 4.1 2.1 8.5 2.8 13.1h14.1c-1.4-4.7-3.2-9.1-5.4-13.1H28.4zM27.5 40.5h10.7C33.1 32.3 26.5 26.3 19 23.4v.6c2.7 3.1 5.2 7.6 7.3 13.2.4 1 .8 2.2 1.2 3.3zM62.6 56.6c-2-4.7-4.7-9.1-8-13.1H43.2c2.1 4.1 3.8 8.5 5.1 13.1h14.3zM19 59.5v13.4h10.9c-.2-4.6-.6-9.1-1.2-13.4H19z"/><path d="M19 11.1v8.4c12.6 2 24.3 7.9 33.5 17.2 9.9 9.9 16 22.5 17.5 36.2h10.8V11.1H19zm37.8 19.8h-2.5V16.6h2.5v14.3zm9.4-9.5h-2.5v-1.1c0-1.2-.6-1.7-1.2-1.7-1 0-1.3.5-1.3 1.6v7.3c0 1.1.3 1.6 1.3 1.6.9 0 1.2-.5 1.2-1.5v-1.7h2.5v1.6c0 2-1.2 3.7-3.7 3.7-2.6 0-3.8-1.6-3.8-3.7v-7.4c0-2 1.2-3.7 3.8-3.7 2.5 0 3.7 1.8 3.7 3.9v1.1zm9.1 0h-2.5v-1.1c0-1.2-.6-1.7-1.2-1.7-1 0-1.3.5-1.3 1.6v7.3c0 1.1.3 1.6 1.3 1.6.9 0 1.2-.5 1.2-1.5v-1.7h2.5v1.6c0 2-1.2 3.7-3.7 3.7-2.6 0-3.8-1.6-3.8-3.7v-7.4c0-2 1.2-3.7 3.8-3.7 2.5 0 3.7 1.8 3.7 3.9v1.1zM31.6 59.5c.6 4.3 1 8.8 1.2 13.4h15.5c-.4-4.7-1.1-9.1-2.2-13.4H31.6z"/><path d="M49.1 59.5c1.1 4.3 1.8 8.8 2.1 13.4h15.9c-.6-4.6-1.7-9.1-3.3-13.4H49.1zM23.6 38.2c-1.4-3.7-2.9-6.9-4.6-9.4v11.8h5.4c-.3-.9-.5-1.7-.8-2.4zM25.3 43.4H19v13.1h9.3c-.8-4.6-1.8-9-3-13.1z"/></g><g fill="#005745"><path d="M20.7 75.9l1.8 7.9 1.8-7.9h1.8v10.4h-1v-9.5l-2.2 9.5h-.7L20 76.8v9.5h-1V75.9h1.7zM36.3 75.9v1h-3.6v3.5h2.7v1h-2.7v4h3.8v1h-4.9V75.9h4.7zM43.3 75.9l1.8 7.9 1.8-7.9h1.8v10.4h-1v-9.5l-2.2 9.5h-.7l-2.2-9.5v9.5h-1V75.9h1.7zM54.1 75.9h2.8c1.6 0 2.5 1 2.5 2.6 0 1-.5 2-1.6 2.3 1.3.3 1.8 1.3 1.8 2.6 0 1.9-1.1 2.9-3.3 2.9h-2.1V75.9zm1.2 4.5h.6c1.6 0 2.3-.5 2.3-1.9 0-1.2-.5-1.6-1.8-1.6h-1.1v3.5zm0 5h1.1c1.4 0 2.1-.6 2.1-1.9 0-1.4-.6-2.1-2.1-2.1h-1.1v4zM69.8 75.9v1h-3.6v3.5h2.7v1h-2.7v4H70v1h-4.9V75.9h4.7zM75.2 75.9h2.5c1.7 0 2.9 1 2.9 2.7 0 1.2-.5 2.1-1.7 2.6l1.8 5.2h-1.2l-1.7-4.9-1.5.1v4.9h-1.1V75.9zm1.1 4.6h1c1.6 0 2.1-.6 2.1-1.8 0-1.2-.5-1.8-2.1-1.8h-1v3.6z"/></g></svg>